inDegrees=no
num_controls=7
num_derivatives=13
num_iterations=72
num_multipliers=7
num_parameters=0
num_slacks=7
num_states=26
objective=0.334478
objective_accelerations=0.038569
objective_balance=0.001479
objective_effort=0.028007
objective_height=0.264996
objective_ligament=0.001427
solver_duration=764.268770
status=Solve_Succeeded
success=true
DataType=double
version=3
OpenSimVersion=4.5
endheader
time	/jointset/ground_pelvis/pelvis_tilt/value	/jointset/ground_pelvis/pelvis_tx/value	/jointset/ground_pelvis/pelvis_ty/value	/jointset/hip_r/hip_flexion_r/value	/jointset/hip_r/hip_adduction_r/value	/jointset/hip_r/hip_rotation_r/value	/jointset/back/lumbar_extension/value	/jointset/patellofemoral_r/patellar_flexion_r/value	/jointset/knee_r/knee_flexion_r/value	/jointset/knee_r/knee_adduction_r/value	/jointset/knee_r/knee_rotation_r/value	/jointset/ankle_r/ankle_angle_r/value	/jointset/subtalar_r/subtalar_angle_r/value	/jointset/ground_pelvis/pelvis_tilt/speed	/jointset/ground_pelvis/pelvis_tx/speed	/jointset/ground_pelvis/pelvis_ty/speed	/jointset/hip_r/hip_flexion_r/speed	/jointset/hip_r/hip_adduction_r/speed	/jointset/hip_r/hip_rotation_r/speed	/jointset/back/lumbar_extension/speed	/jointset/patellofemoral_r/patellar_flexion_r/speed	/jointset/knee_r/knee_flexion_r/speed	/jointset/knee_r/knee_adduction_r/speed	/jointset/knee_r/knee_rotation_r/speed	/jointset/ankle_r/ankle_angle_r/speed	/jointset/subtalar_r/subtalar_angle_r/speed	/forceset/tau_hip_flexion_r	/forceset/tau_hip_adduction_r	/forceset/tau_hip_rotation_r	/forceset/tau_knee_flexion_r	/forceset/tau_ankle_angle_r	/forceset/tau_subtalar_angle_r	/forceset/tau_lumbar_extension	lambda_cid13_p0	lambda_cid14_p0	lambda_cid14_p1	lambda_cid14_p2	lambda_cid14_p3	lambda_cid14_p4	lambda_cid14_p5	/jointset/ground_pelvis/pelvis_tilt/accel	/jointset/ground_pelvis/pelvis_tx/accel	/jointset/ground_pelvis/pelvis_ty/accel	/jointset/hip_r/hip_flexion_r/accel	/jointset/hip_r/hip_adduction_r/accel	/jointset/hip_r/hip_rotation_r/accel	/jointset/back/lumbar_extension/accel	/jointset/patellofemoral_r/patellar_flexion_r/accel	/jointset/knee_r/knee_flexion_r/accel	/jointset/knee_r/knee_adduction_r/accel	/jointset/knee_r/knee_rotation_r/accel	/jointset/ankle_r/ankle_angle_r/accel	/jointset/subtalar_r/subtalar_angle_r/accel	gamma_cid13_p0	gamma_cid14_p0	gamma_cid14_p1	gamma_cid14_p2	gamma_cid14_p3	gamma_cid14_p4	gamma_cid14_p5
1	-0.2926449383714779	-0.01171451182151521	0.6212684817142655	1.508870369622942	-0.2390252545759356	-0.08162005504392504	-0.7853951375963262	1.532732181562791	1.532732181562795	-0.1745270742538425	0.1739178670080267	0.4362321020409476	0.1742807654970616	0.07191768468550197	0.006094309396743288	0.01640290560003656	-0.1048737700619493	-0.001306374239095324	-0.002751212331830022	0.0002523819822162776	-0.01816139106058902	-0.01816139106058972	0.003789809216723744	7.975445736146505e-05	0.01478550978155427	0.005179039405087065	-0.3717681885604343	0.02851103563745566	0.006455547887063643	-0.4349500076979444	-0.05239193402183222	0.01025922822031635	0.3784266935270837	-0.04081270329302518	-68.25256408570945	-10.1744757784723	5.104689950962336	9.692408675715525	-775.7066109045228	67.17348710993625	1.305187827395273	0.1286146110967934	1.900949517273293	-5.623149700179478	0.2381750173838605	-0.4110860727582713	0.09113629485545358	-5.184370799025482	-5.184370799025477	0.9491187705817272	0.007327312255495074	-1.051974907199915	-0.07933029756748657	3.125869489127903e-09	2.500467523528744e-09	1.674829788088356e-08	2.144823247090346e-08	1.368722186894595e-09	-7.507300051727838e-09	3.762829794384178e-08
1.01	-0.2918587998022427	-0.0116467130509035	0.6215276096692286	1.507538468580305	-0.2390267029690106	-0.08166524475673063	-0.7853876905645764	1.532292438491867	1.532292438491857	-0.1744387483267404	0.1739189379852388	0.436328512238915	0.1743285529220215	0.08554811647711666	0.007511879689767433	0.03544054241268124	-0.1617983260581403	0.0009885413805584458	-0.006257183689517535	0.00119638725976229	-0.06972002593400707	-0.06972002593400679	0.01391752848825365	0.0001572479436361529	0.004616944533500938	0.004385979459039903	-0.3732930194879807	0.02850801140662526	0.00645924490825832	-0.434222717295797	-0.05310765874171246	0.01035380877661876	0.3800466318685086	-0.0407675829063154	-68.49267498325572	-10.15233470269725	5.074767185625637	9.284652037236226	-776.3527572655993	67.14843037753886	1.427686285201248	0.1552941881055807	1.90784607875528	-5.770889712818255	0.2209337886676507	-0.3159189544795025	0.08993708978817024	-5.131531444741678	-5.131531444741492	1.050922146070706	0.01139486020944837	-0.9812360714367994	-0.0781504686208216	5.93043956704967e-09	5.283619457316618e-09	4.732373935857922e-08	4.86963990558669e-08	3.504055048733185e-09	-1.610082034918785e-08	8.685153854090544e-08
1.02	-0.2909292138290633	-0.01156334538742128	0.6219776490554165	1.505628565745011	-0.2390060454150049	-0.0817446074405721	-0.7853720225915432	1.531339124749562	1.531339124749557	-0.1742478804788428	0.1739214707959756	0.436326849036784	0.1743686384224211	0.1006071654750043	0.009208087970842853	0.05458519184516434	-0.22047412859349	0.003114815176687272	-0.009585806535437403	0.00189657036067433	-0.1208755253370921	-0.1208755253370907	0.02429819338506853	0.0003721211657496613	-0.004829170227705177	0.003638654493092137	-0.3748178504155046	0.02850498717575204	0.006462941929763567	-0.4334954268936195	-0.05382338346160975	0.01044838933282674	0.3816665702099514	-0.04072906895185222	-68.73996404439605	-10.12660021716006	5.038730945147278	8.876362006123927	-777.1194256159198	67.1593201412404	1.590911268649898	0.184342208707031	1.922352041240971	-5.973399008011222	0.2044466526788766	-0.3756163704047578	0.04237185952960215	-5.103743704958871	-5.10374370495885	0.9997078956387018	0.03480325942325453	-0.9074848098305012	-0.07018330154761072	1.342118012432633e-08	2.018334363064158e-08	7.758656087954936e-08	9.948054756048457e-08	-1.175537437910246e-08	-1.745616735406775e-08	1.81151627586872e-07
1.03	-0.2898496620728307	-0.01146225000453752	0.6226188578169802	1.503132224353331	-0.2389644496493444	-0.08185665962956316	-0.7853430251623372	1.529875165955225	1.529875165955239	-0.1739524772547719	0.1739263459722687	0.4362318851664871	0.1744012089326594	0.1147559652453961	0.01099469662844817	0.07359195119466092	-0.278167854955221	0.005228988349532607	-0.01282305937099284	0.004626655480355017	-0.1719581902219176	-0.1719581902219148	0.03477014242223465	0.0005741639633660452	-0.01428882196050807	0.002857404426837512	-0.375114571729495	0.02866534144480063	0.006613167769324389	-0.4335987194591154	-0.05412879286704343	0.01039843204202676	0.3826292839711118	-0.04079585979499857	-68.88975323389394	-10.17243696851282	5.04365532432808	8.959562097837781	-777.8122583640945	67.17925945796303	1.244786902193594	0.1733708655587908	1.880142735567914	-5.573409642935632	0.2186183188914116	-0.2975297747331916	0.4968878383137262	-5.116825621652429	-5.116825621652176	1.069085624457145	0.008632949073277406	-0.9839863182248719	-0.08476767726402407	2.095973874771889e-08	3.520670629620679e-08	1.078461924009611e-07	1.505048591459152e-07	-2.719230138132265e-08	-1.873765544779884e-08	2.759116844741543e-07
1.04	-0.2886450378046954	-0.0113437784008232	0.6234481951427912	1.500077735659563	-0.2389009690180844	-0.08200103435384799	-0.7852650146819079	1.527899120963759	1.527899120963764	-0.173552725097024	0.1739323872083487	0.4360385685862266	0.1744254325786148	0.1256216678541881	0.0126833321369545	0.09221090469476276	-0.3321035890241951	0.007491788294552863	-0.01605031359064972	0.01169918060508656	-0.2232927647630616	-0.2232927647630578	0.04516798012746507	0.0006053331266793993	-0.02449971222210049	0.001969281636596716	-0.3754112930431879	0.02882569571382455	0.006763393609208011	-0.4337020120245761	-0.05443420227253753	0.0103484747511439	0.3835919977325493	-0.04086945919525838	-69.04678026935558	-10.21461402529412	5.042367916472958	9.042222392653164	-778.6267317284844	67.23562009434562	0.9342918363299729	0.1647475788872026	1.84479087136202	-5.221800549459856	0.234172007113869	-0.3736166472250648	0.9108598605398182	-5.154125636222556	-5.154125636222621	0.9848856292515316	0.000628532562640889	-1.057732515588463	-0.09155784634485284	2.698498591150947e-08	3.566248334377905e-08	1.433170626574655e-07	1.947014804107245e-07	-1.460791402321675e-08	-3.858071545257926e-08	3.444019110409071e-07
1.05	-0.2873369094765176	-0.01120829147299742	0.6244631269361928	1.496489469753334	-0.238814527496333	-0.08217809675130072	-0.7851073276466032	1.525408826670973	1.525408826670972	-0.1730495340568284	0.1739381794946249	0.4357417784818567	0.1744407036353502	0.136586497731168	0.01445931576901245	0.1108461571892356	-0.386250098642643	0.009779765449888784	-0.01939845222208886	0.01928275885686843	-0.2747752855467842	-0.2747752855467809	0.05545184743698797	0.0005548842843993551	-0.034745903654446	0.001111498389274525	-0.375780644855262	0.0289704422144831	0.006920855757505088	-0.4329383792160004	-0.05497134952231596	0.01035914139948241	0.3839206601877597	-0.04085370284933062	-69.22393500726626	-10.21611958449238	5.014188712330577	8.93946532746588	-778.8669937425024	67.22381602343609	1.264963834532126	0.1908130127927414	1.883485911979385	-5.616143024058701	0.2236298370132468	-0.3208374083141023	0.5987866677335191	-5.14670071532194	-5.146700715321952	1.047374707601258	-0.007553608215206475	-0.9912026941995492	-0.07884653070929762	3.29629420921875e-08	3.566302334078911e-08	1.789507841244414e-07	2.386847363530145e-07	-1.147860591350818e-09	-5.900382457957989e-08	4.120712054101436e-07
1.06	-0.2859016557953385	-0.01105368685736537	0.6256665299492364	1.492338725379737	-0.2387057023495712	-0.08238972552251143	-0.7848904688567319	1.522403430087175	1.522403430087159	-0.1724440568583965	0.1739435328893578	0.4353458984157362	0.1744482052662556	0.1510467384541548	0.0165068696982107	0.1299051486232904	-0.4445992825019392	0.01196851329601861	-0.02296358834196493	0.02353353151808938	-0.3263132229655019	-0.3263132229654989	0.06562521177845203	0.0005175548184425381	-0.04431770457247201	0.0004153964706171901	-0.376149996667233	0.02911518871514233	0.007078317905944959	-0.4321747464074115	-0.05550849677211386	0.01036980804781074	0.3842493226430664	-0.04084563134735177	-69.40869505545248	-10.21412003323575	4.979925572100776	8.83455136213769	-779.235457401045	67.24813524629087	1.633374005531395	0.2190616383152348	1.929538659278402	-6.06233539762951	0.2143261452726587	-0.4170161449124696	0.2442987424276682	-5.165208963221605	-5.165208963221625	0.9627850356397322	0.003252407827279476	-0.922854412724612	-0.05922158061188834	3.572652025615538e-08	5.008402088528357e-08	2.037942512763421e-07	2.675291605464148e-07	-2.37132465811925e-08	-5.007123282988495e-08	4.699081209477646e-07
1.07	-0.2843146949095075	-0.01087770367076833	0.6270611147853404	1.487596191408607	-0.2385752836217939	-0.08263748778642241	-0.7846354826514211	1.518882757806099	1.518882757806072	-0.1717370504323485	0.173948528808387	0.4348555936921342	0.1744488554927839	0.1658898519356324	0.01869037873479469	0.1489296001310978	-0.5033354804862055	0.01411826643370193	-0.0265555863972559	0.02813738540396418	-0.3777886677409254	-0.3777886677409262	0.07580111784451098	0.0004775153683554719	-0.05383564232272665	-0.0003280720619104178	-0.3760403828166246	0.02917034773027635	0.007308099532335321	-0.4313011867553208	-0.05575248558314938	0.01034362026178503	0.3849083001170993	-0.04092222225576488	-69.4757320843801	-10.20979219726274	4.947894055045123	8.735602201910691	-779.164482690891	67.25024959824164	1.341453147290741	0.2180772181098077	1.876557859540811	-5.693446365420714	0.2157921275174605	-0.3252759607286668	0.6694800908168765	-5.133835108884398	-5.133835108884973	1.048742099968756	-0.008169429497395601	-0.9801216860692241	-0.08824706479346944	3.831912086604292e-08	6.527206404400602e-08	2.280637687306322e-07	2.955683277318953e-07	-4.819487934878483e-08	-3.957716762930176e-08	5.272220376113634e-07
1.08	-0.2825929682632943	-0.01067986905744943	0.6286434760291232	1.482283458584288	-0.2384232689167429	-0.08292016689586124	-0.7843142476314261	1.514848306502433	1.514848306502417	-0.1709275352040816	0.1739530168713039	0.4342673379450511	0.1744408035189429	0.1779998905304898	0.02087715504258405	0.167460430159231	-0.5586390531342994	0.01628770875143559	-0.02994695744820201	0.03678329445581147	-0.4290690274836185	-0.4290690274836231	0.08612697222575794	0.0004159835954393162	-0.06390790926871509	-0.001325043603247542	-0.3759307689661421	0.02922550674540748	0.007537881158812258	-0.4304276271032234	-0.05599647439416404	0.01031743247576403	0.3855672775910136	-0.04100522643028488	-69.55034047304663	-10.20201559909672	4.909858598725422	8.63304836192804	-779.2222472960807	67.28788012227064	1.08675902820742	0.219715092556279	1.830814363343576	-5.375810330395002	0.2182639812827329	-0.3768907440435161	1.052709775622214	-5.126191956675552	-5.126191956675547	0.9927746986773086	-0.00104605673854492	-1.033720251871421	-0.1099221823737974	4.332847871684448e-08	6.816849401847506e-08	2.52004267925221e-07	3.320252142428231e-07	-4.365616728850438e-08	-5.119952076016609e-08	5.802946214342013e-07
1.09	-0.2807579429003897	-0.0104598757548067	0.6304094048050524	1.476427952924329	-0.238249619965542	-0.08323631296827305	-0.7838934100375945	1.510301979651312	1.510301979651312	-0.1700144193253063	0.1739568810658116	0.4335766421052243	0.174421771335287	0.1891280724824801	0.02314875319645857	0.1857151728694445	-0.6125720065338229	0.01843150924481213	-0.03329136485222823	0.04736052504669803	-0.4801703432134121	-0.4801703432134289	0.09649200370297249	0.0003581352697313399	-0.07422095920612515	-0.002495854231290179	-0.3753914867600239	0.02931263358671565	0.007810417709847662	-0.4292284817118696	-0.05612393552334146	0.01027203750202259	0.3854726954057325	-0.04105393919024385	-69.55486297642089	-10.1900255137048	4.870827890524353	8.489676347244934	-778.7747794943706	67.26690673125375	1.144295818592097	0.2349620740808491	1.821268258447157	-5.418513392984647	0.2109001671016154	-0.3145523308852996	1.056674811246067	-5.098211250811795	-5.098211250813585	1.057728521797461	-0.007863554888800656	-1.028551559248308	-0.1227425342126149	4.852172027075905e-08	7.012969255501184e-08	2.75919733121789e-07	3.691225793980784e-07	-3.690938551305988e-08	-6.450464485103174e-08	6.3304449514959e-07
